<svg width="60" height="60" viewBox="0 0 60 60" fill="none" xmlns="http://www.w3.org/2000/svg">
<g clip-path="url(#clip0_58_36)">
<path d="M47.25 -111.5C47.25 -99.6259 37.6241 -90 25.75 -90C13.8759 -90 4.25 -99.6259 4.25 -111.5C4.25 -123.374 13.8759 -133 25.75 -133C37.6241 -133 47.25 -123.374 47.25 -111.5Z" fill="url(#paint0_linear_58_36)"/>
<path fill-rule="evenodd" clip-rule="evenodd" d="M41.1287 -95.1213C42.3003 -96.2929 44.1997 -96.2929 45.3713 -95.1213L51.8713 -88.6213C53.0429 -87.4497 53.0429 -85.5503 51.8713 -84.3787C50.6997 -83.2071 48.8003 -83.2071 47.6287 -84.3787L41.1287 -90.8787C39.9571 -92.0503 39.9571 -93.9497 41.1287 -95.1213Z" fill="url(#paint1_linear_58_36)"/>
<path d="M52.325 -48.975L35.95 -62.075C32.75 -64.625 27.75 -64.65 24.575 -62.1L8.2 -48.975C5.85 -47.1 4.425 -43.35 4.925 -40.4L8.075 -21.55C8.8 -17.325 12.725 -14 17 -14H43.5C47.725 -14 51.725 -17.4 52.45 -21.575L55.6 -40.425C56.05 -43.35 54.625 -47.1 52.325 -48.975ZM32.125 -24C32.125 -22.975 31.275 -22.125 30.25 -22.125C29.225 -22.125 28.375 -22.975 28.375 -24V-31.5C28.375 -32.525 29.225 -33.375 30.25 -33.375C31.275 -33.375 32.125 -32.525 32.125 -31.5V-24Z" fill="url(#paint2_linear_58_36)"/>
<path d="M47.95 39.3C46.475 30.475 38 23.3 29.05 23.3C19.325 23.3 10.775 31.175 9.95 40.875C9.625 44.625 10.825 48.175 13.3 50.85C15.75 53.525 17.25 56 22.95 55C28.65 54 29.55 54 34.65 55C39.75 56 42.575 53.35 45.1 50.375C47.625 47.4 48.625 43.45 47.95 39.3ZM25.95 19.65C27.8927 19.65 29.7559 18.8783 31.1296 17.5046C32.5033 16.1309 33.275 14.2677 33.275 12.325C33.275 10.3823 32.5033 8.51915 31.1296 7.14545C29.7559 5.77174 27.8927 5 25.95 5C24.0073 5 22.1441 5.77174 20.7704 7.14545C19.3967 8.51915 18.625 10.3823 18.625 12.325C18.625 14.2677 19.3967 16.1309 20.7704 17.5046C22.1441 18.8783 24.0073 19.65 25.95 19.65ZM42.6 22.57C44.2178 22.57 45.7694 21.9273 46.9134 20.7834C48.0573 19.6394 48.7 18.0878 48.7 16.47C48.7 14.8522 48.0573 13.3006 46.9134 12.1566C45.7694 11.0127 44.2178 10.37 42.6 10.37C40.9822 10.37 39.4306 11.0127 38.2866 12.1566C37.1427 13.3006 36.5 14.8522 36.5 16.47C36.5 18.0878 37.1427 19.6394 38.2866 20.7834C39.4306 21.9273 40.9822 22.57 42.6 22.57ZM51.625 32.3275C52.2652 32.3275 52.8991 32.2014 53.4906 31.9564C54.082 31.7114 54.6195 31.3523 55.0721 30.8996C55.5248 30.447 55.8839 29.9095 56.1289 29.3181C56.3739 28.7266 56.5 28.0927 56.5 27.4525C56.5 26.8123 56.3739 26.1784 56.1289 25.5869C55.8839 24.9955 55.5248 24.458 55.0721 24.0054C54.6195 23.5527 54.082 23.1936 53.4906 22.9486C52.8991 22.7036 52.2652 22.5775 51.625 22.5775C50.3321 22.5775 49.0921 23.0911 48.1779 24.0054C47.2636 24.9196 46.75 26.1596 46.75 27.4525C46.75 28.7454 47.2636 29.9854 48.1779 30.8996C49.0921 31.8139 50.3321 32.3275 51.625 32.3275ZM10.1 27.455C10.9011 27.455 11.6943 27.2972 12.4344 26.9907C13.1745 26.6841 13.8469 26.2348 14.4134 25.6684C14.9798 25.1019 15.4291 24.4294 15.7357 23.6894C16.0422 22.9493 16.2 22.1561 16.2 21.355C16.2 20.5539 16.0422 19.7607 15.7357 19.0206C15.4291 18.2805 14.9798 17.6081 14.4134 17.0417C13.8469 16.4752 13.1745 16.0259 12.4344 15.7193C11.6943 15.4128 10.9011 15.255 10.1 15.255C8.48218 15.255 6.93062 15.8977 5.78665 17.0417C4.64268 18.1856 4 19.7372 4 21.355C4 22.9728 4.64268 24.5244 5.78665 25.6684C6.93062 26.8123 8.48218 27.455 10.1 27.455Z" fill="url(#paint3_linear_58_36)"/>
<path d="M39.225 100V110.175C39.225 111.075 39.125 111.925 38.9 112.7C37.975 116.375 34.925 118.675 30.725 118.675H23.925L16.375 123.7C16.1219 123.873 15.8262 123.974 15.5199 123.991C15.2137 124.008 14.9086 123.94 14.638 123.796C14.3674 123.652 14.1415 123.436 13.9849 123.172C13.8284 122.908 13.7471 122.607 13.75 122.3V118.675C11.2 118.675 9.075 117.825 7.6 116.35C6.1 114.85 5.25 112.725 5.25 110.175V100C5.25 95.25 8.2 91.975 12.75 91.55C13.075 91.525 13.4 91.5 13.75 91.5H30.725C35.825 91.5 39.225 94.9 39.225 100Z" fill="url(#paint4_linear_58_36)"/>
<path d="M44.625 108C47.8 108 50.475 106.95 52.325 105.075C54.2 103.225 55.25 100.55 55.25 97.375V84.625C55.25 78.75 50.5 74 44.625 74H23.375C17.5 74 12.75 78.75 12.75 84.625V86.5C12.75 87.2 13.3 87.75 14 87.75H30.725C37.5 87.75 42.975 93.225 42.975 100V106.75C42.975 107.45 43.525 108 44.225 108H44.625Z" fill="url(#paint5_linear_58_36)"/>
</g>
<defs>
<linearGradient id="paint0_linear_58_36" x1="30" y1="-133" x2="30" y2="124" gradientUnits="userSpaceOnUse">
<stop stop-color="#C3BCF0"/>
<stop offset="0.46875" stop-color="#ADF0FF"/>
<stop offset="1" stop-color="#FFBB6A"/>
</linearGradient>
<linearGradient id="paint1_linear_58_36" x1="30" y1="-133" x2="30" y2="124" gradientUnits="userSpaceOnUse">
<stop stop-color="#C3BCF0"/>
<stop offset="0.46875" stop-color="#ADF0FF"/>
<stop offset="1" stop-color="#FFBB6A"/>
</linearGradient>
<linearGradient id="paint2_linear_58_36" x1="30" y1="-133" x2="30" y2="124" gradientUnits="userSpaceOnUse">
<stop stop-color="#C3BCF0"/>
<stop offset="0.46875" stop-color="#ADF0FF"/>
<stop offset="1" stop-color="#FFBB6A"/>
</linearGradient>
<linearGradient id="paint3_linear_58_36" x1="30" y1="-133" x2="30" y2="124" gradientUnits="userSpaceOnUse">
<stop stop-color="#C3BCF0"/>
<stop offset="0.46875" stop-color="#ADF0FF"/>
<stop offset="1" stop-color="#FFBB6A"/>
</linearGradient>
<linearGradient id="paint4_linear_58_36" x1="30" y1="-133" x2="30" y2="124" gradientUnits="userSpaceOnUse">
<stop stop-color="#C3BCF0"/>
<stop offset="0.46875" stop-color="#ADF0FF"/>
<stop offset="1" stop-color="#FFBB6A"/>
</linearGradient>
<linearGradient id="paint5_linear_58_36" x1="30" y1="-133" x2="30" y2="124" gradientUnits="userSpaceOnUse">
<stop stop-color="#C3BCF0"/>
<stop offset="0.46875" stop-color="#ADF0FF"/>
<stop offset="1" stop-color="#FFBB6A"/>
</linearGradient>
<clipPath id="clip0_58_36">
<rect width="60" height="60" fill="white"/>
</clipPath>
</defs>
</svg>
