<svg width="60" height="60" viewBox="0 0 60 60" fill="none" xmlns="http://www.w3.org/2000/svg">
<g clip-path="url(#clip0_58_39)">
<path d="M47.25 -179.5C47.25 -167.626 37.6241 -158 25.75 -158C13.8759 -158 4.25 -167.626 4.25 -179.5C4.25 -191.374 13.8759 -201 25.75 -201C37.6241 -201 47.25 -191.374 47.25 -179.5Z" fill="url(#paint0_linear_58_39)"/>
<path fill-rule="evenodd" clip-rule="evenodd" d="M41.1287 -163.121C42.3003 -164.293 44.1997 -164.293 45.3713 -163.121L51.8713 -156.621C53.0429 -155.45 53.0429 -153.55 51.8713 -152.379C50.6997 -151.207 48.8003 -151.207 47.6287 -152.379L41.1287 -158.879C39.9571 -160.05 39.9571 -161.95 41.1287 -163.121Z" fill="url(#paint1_linear_58_39)"/>
<path d="M52.325 -116.975L35.95 -130.075C32.75 -132.625 27.75 -132.65 24.575 -130.1L8.2 -116.975C5.85 -115.1 4.425 -111.35 4.925 -108.4L8.075 -89.55C8.8 -85.325 12.725 -82 17 -82H43.5C47.725 -82 51.725 -85.4 52.45 -89.575L55.6 -108.425C56.05 -111.35 54.625 -115.1 52.325 -116.975ZM32.125 -92C32.125 -90.975 31.275 -90.125 30.25 -90.125C29.225 -90.125 28.375 -90.975 28.375 -92V-99.5C28.375 -100.525 29.225 -101.375 30.25 -101.375C31.275 -101.375 32.125 -100.525 32.125 -99.5V-92Z" fill="url(#paint2_linear_58_39)"/>
<path d="M47.95 -28.7C46.475 -37.525 38 -44.7 29.05 -44.7C19.325 -44.7 10.775 -36.825 9.95 -27.125C9.625 -23.375 10.825 -19.825 13.3 -17.15C15.75 -14.475 17.25 -12 22.95 -13C28.65 -14 29.55 -14 34.65 -13C39.75 -12 42.575 -14.65 45.1 -17.625C47.625 -20.6 48.625 -24.55 47.95 -28.7ZM25.95 -48.35C27.8927 -48.35 29.7559 -49.1217 31.1296 -50.4954C32.5033 -51.8691 33.275 -53.7323 33.275 -55.675C33.275 -57.6177 32.5033 -59.4808 31.1296 -60.8546C29.7559 -62.2283 27.8927 -63 25.95 -63C24.0073 -63 22.1441 -62.2283 20.7704 -60.8546C19.3967 -59.4808 18.625 -57.6177 18.625 -55.675C18.625 -53.7323 19.3967 -51.8691 20.7704 -50.4954C22.1441 -49.1217 24.0073 -48.35 25.95 -48.35ZM42.6 -45.43C44.2178 -45.43 45.7694 -46.0727 46.9134 -47.2166C48.0573 -48.3606 48.7 -49.9122 48.7 -51.53C48.7 -53.1478 48.0573 -54.6994 46.9134 -55.8434C45.7694 -56.9873 44.2178 -57.63 42.6 -57.63C40.9822 -57.63 39.4306 -56.9873 38.2866 -55.8434C37.1427 -54.6994 36.5 -53.1478 36.5 -51.53C36.5 -49.9122 37.1427 -48.3606 38.2866 -47.2166C39.4306 -46.0727 40.9822 -45.43 42.6 -45.43ZM51.625 -35.6725C52.2652 -35.6725 52.8991 -35.7986 53.4906 -36.0436C54.082 -36.2886 54.6195 -36.6477 55.0721 -37.1004C55.5248 -37.553 55.8839 -38.0905 56.1289 -38.6819C56.3739 -39.2734 56.5 -39.9073 56.5 -40.5475C56.5 -41.1877 56.3739 -41.8216 56.1289 -42.4131C55.8839 -43.0045 55.5248 -43.542 55.0721 -43.9946C54.6195 -44.4473 54.082 -44.8064 53.4906 -45.0514C52.8991 -45.2964 52.2652 -45.4225 51.625 -45.4225C50.3321 -45.4225 49.0921 -44.9089 48.1779 -43.9946C47.2636 -43.0804 46.75 -41.8404 46.75 -40.5475C46.75 -39.2546 47.2636 -38.0146 48.1779 -37.1004C49.0921 -36.1861 50.3321 -35.6725 51.625 -35.6725ZM10.1 -40.545C10.9011 -40.545 11.6943 -40.7028 12.4344 -41.0093C13.1745 -41.3159 13.8469 -41.7652 14.4134 -42.3316C14.9798 -42.8981 15.4291 -43.5706 15.7357 -44.3106C16.0422 -45.0507 16.2 -45.8439 16.2 -46.645C16.2 -47.4461 16.0422 -48.2393 15.7357 -48.9794C15.4291 -49.7195 14.9798 -50.3919 14.4134 -50.9583C13.8469 -51.5248 13.1745 -51.9741 12.4344 -52.2807C11.6943 -52.5872 10.9011 -52.745 10.1 -52.745C8.48218 -52.745 6.93062 -52.1023 5.78665 -50.9583C4.64268 -49.8144 4 -48.2628 4 -46.645C4 -45.0272 4.64268 -43.4756 5.78665 -42.3316C6.93062 -41.1877 8.48218 -40.545 10.1 -40.545Z" fill="url(#paint3_linear_58_39)"/>
<path d="M39.225 32V42.175C39.225 43.075 39.125 43.925 38.9 44.7C37.975 48.375 34.925 50.675 30.725 50.675H23.925L16.375 55.7C16.1219 55.8733 15.8262 55.9738 15.5199 55.9907C15.2137 56.0076 14.9086 55.9402 14.638 55.7959C14.3674 55.6516 14.1415 55.4358 13.9849 55.1721C13.8284 54.9083 13.7471 54.6067 13.75 54.3V50.675C11.2 50.675 9.075 49.825 7.6 48.35C6.1 46.85 5.25 44.725 5.25 42.175V32C5.25 27.25 8.2 23.975 12.75 23.55C13.075 23.525 13.4 23.5 13.75 23.5H30.725C35.825 23.5 39.225 26.9 39.225 32Z" fill="url(#paint4_linear_58_39)"/>
<path d="M44.625 40C47.8 40 50.475 38.95 52.325 37.075C54.2 35.225 55.25 32.55 55.25 29.375V16.625C55.25 10.75 50.5 6 44.625 6H23.375C17.5 6 12.75 10.75 12.75 16.625V18.5C12.75 19.2 13.3 19.75 14 19.75H30.725C37.5 19.75 42.975 25.225 42.975 32V38.75C42.975 39.45 43.525 40 44.225 40H44.625Z" fill="url(#paint5_linear_58_39)"/>
</g>
<defs>
<linearGradient id="paint0_linear_58_39" x1="30" y1="-201" x2="30" y2="56" gradientUnits="userSpaceOnUse">
<stop stop-color="#C3BCF0"/>
<stop offset="0.46875" stop-color="#ADF0FF"/>
<stop offset="1" stop-color="#FFBB6A"/>
</linearGradient>
<linearGradient id="paint1_linear_58_39" x1="30" y1="-201" x2="30" y2="56" gradientUnits="userSpaceOnUse">
<stop stop-color="#C3BCF0"/>
<stop offset="0.46875" stop-color="#ADF0FF"/>
<stop offset="1" stop-color="#FFBB6A"/>
</linearGradient>
<linearGradient id="paint2_linear_58_39" x1="30" y1="-201" x2="30" y2="56" gradientUnits="userSpaceOnUse">
<stop stop-color="#C3BCF0"/>
<stop offset="0.46875" stop-color="#ADF0FF"/>
<stop offset="1" stop-color="#FFBB6A"/>
</linearGradient>
<linearGradient id="paint3_linear_58_39" x1="30" y1="-201" x2="30" y2="56" gradientUnits="userSpaceOnUse">
<stop stop-color="#C3BCF0"/>
<stop offset="0.46875" stop-color="#ADF0FF"/>
<stop offset="1" stop-color="#FFBB6A"/>
</linearGradient>
<linearGradient id="paint4_linear_58_39" x1="30" y1="-201" x2="30" y2="56" gradientUnits="userSpaceOnUse">
<stop stop-color="#C3BCF0"/>
<stop offset="0.46875" stop-color="#ADF0FF"/>
<stop offset="1" stop-color="#FFBB6A"/>
</linearGradient>
<linearGradient id="paint5_linear_58_39" x1="30" y1="-201" x2="30" y2="56" gradientUnits="userSpaceOnUse">
<stop stop-color="#C3BCF0"/>
<stop offset="0.46875" stop-color="#ADF0FF"/>
<stop offset="1" stop-color="#FFBB6A"/>
</linearGradient>
<clipPath id="clip0_58_39">
<rect width="60" height="60" fill="white"/>
</clipPath>
</defs>
</svg>
