<svg width="60" height="60" viewBox="0 0 60 60" fill="none" xmlns="http://www.w3.org/2000/svg">
<g clip-path="url(#clip0_58_30)">
<path d="M48.25 26.5C48.25 38.3741 38.6241 48 26.75 48C14.8759 48 5.25 38.3741 5.25 26.5C5.25 14.6259 14.8759 5 26.75 5C38.6241 5 48.25 14.6259 48.25 26.5Z" fill="url(#paint0_linear_58_30)"/>
<path fill-rule="evenodd" clip-rule="evenodd" d="M42.1287 42.8787C43.3003 41.7071 45.1997 41.7071 46.3713 42.8787L52.8713 49.3787C54.0429 50.5503 54.0429 52.4497 52.8713 53.6213C51.6997 54.7929 49.8003 54.7929 48.6287 53.6213L42.1287 47.1213C40.9571 45.9497 40.9571 44.0503 42.1287 42.8787Z" fill="url(#paint1_linear_58_30)"/>
<path d="M53.325 89.025L36.95 75.925C33.75 73.375 28.75 73.35 25.575 75.9L9.2 89.025C6.85 90.9 5.425 94.65 5.925 97.6L9.075 116.45C9.8 120.675 13.725 124 18 124H44.5C48.725 124 52.725 120.6 53.45 116.425L56.6 97.575C57.05 94.65 55.625 90.9 53.325 89.025ZM33.125 114C33.125 115.025 32.275 115.875 31.25 115.875C30.225 115.875 29.375 115.025 29.375 114V106.5C29.375 105.475 30.225 104.625 31.25 104.625C32.275 104.625 33.125 105.475 33.125 106.5V114Z" fill="url(#paint2_linear_58_30)"/>
<path d="M48.95 177.3C47.475 168.475 39 161.3 30.05 161.3C20.325 161.3 11.775 169.175 10.95 178.875C10.625 182.625 11.825 186.175 14.3 188.85C16.75 191.525 18.25 194 23.95 193C29.65 192 30.55 192 35.65 193C40.75 194 43.575 191.35 46.1 188.375C48.625 185.4 49.625 181.45 48.95 177.3ZM26.95 157.65C28.8927 157.65 30.7559 156.878 32.1296 155.505C33.5033 154.131 34.275 152.268 34.275 150.325C34.275 148.382 33.5033 146.519 32.1296 145.145C30.7559 143.772 28.8927 143 26.95 143C25.0073 143 23.1441 143.772 21.7704 145.145C20.3967 146.519 19.625 148.382 19.625 150.325C19.625 152.268 20.3967 154.131 21.7704 155.505C23.1441 156.878 25.0073 157.65 26.95 157.65ZM43.6 160.57C45.2178 160.57 46.7694 159.927 47.9134 158.783C49.0573 157.639 49.7 156.088 49.7 154.47C49.7 152.852 49.0573 151.301 47.9134 150.157C46.7694 149.013 45.2178 148.37 43.6 148.37C41.9822 148.37 40.4306 149.013 39.2866 150.157C38.1427 151.301 37.5 152.852 37.5 154.47C37.5 156.088 38.1427 157.639 39.2866 158.783C40.4306 159.927 41.9822 160.57 43.6 160.57ZM52.625 170.327C53.2652 170.327 53.8991 170.201 54.4906 169.956C55.082 169.711 55.6195 169.352 56.0721 168.9C56.5248 168.447 56.8839 167.91 57.1289 167.318C57.3739 166.727 57.5 166.093 57.5 165.452C57.5 164.812 57.3739 164.178 57.1289 163.587C56.8839 162.995 56.5248 162.458 56.0721 162.005C55.6195 161.553 55.082 161.194 54.4906 160.949C53.8991 160.704 53.2652 160.577 52.625 160.577C51.3321 160.577 50.0921 161.091 49.1779 162.005C48.2636 162.92 47.75 164.16 47.75 165.452C47.75 166.745 48.2636 167.985 49.1779 168.9C50.0921 169.814 51.3321 170.327 52.625 170.327ZM11.1 165.455C11.9011 165.455 12.6943 165.297 13.4344 164.991C14.1745 164.684 14.8469 164.235 15.4134 163.668C15.9798 163.102 16.4291 162.429 16.7357 161.689C17.0422 160.949 17.2 160.156 17.2 159.355C17.2 158.554 17.0422 157.761 16.7357 157.021C16.4291 156.281 15.9798 155.608 15.4134 155.042C14.8469 154.475 14.1745 154.026 13.4344 153.719C12.6943 153.413 11.9011 153.255 11.1 153.255C9.48218 153.255 7.93062 153.898 6.78665 155.042C5.64268 156.186 5 157.737 5 159.355C5 160.973 5.64268 162.524 6.78665 163.668C7.93062 164.812 9.48218 165.455 11.1 165.455Z" fill="url(#paint3_linear_58_30)"/>
<path d="M40.225 238V248.175C40.225 249.075 40.125 249.925 39.9 250.7C38.975 254.375 35.925 256.675 31.725 256.675H24.925L17.375 261.7C17.1219 261.873 16.8262 261.974 16.5199 261.991C16.2137 262.008 15.9086 261.94 15.638 261.796C15.3674 261.652 15.1415 261.436 14.9849 261.172C14.8284 260.908 14.7471 260.607 14.75 260.3V256.675C12.2 256.675 10.075 255.825 8.6 254.35C7.1 252.85 6.25 250.725 6.25 248.175V238C6.25 233.25 9.2 229.975 13.75 229.55C14.075 229.525 14.4 229.5 14.75 229.5H31.725C36.825 229.5 40.225 232.9 40.225 238Z" fill="url(#paint4_linear_58_30)"/>
<path d="M45.625 246C48.8 246 51.475 244.95 53.325 243.075C55.2 241.225 56.25 238.55 56.25 235.375V222.625C56.25 216.75 51.5 212 45.625 212H24.375C18.5 212 13.75 216.75 13.75 222.625V224.5C13.75 225.2 14.3 225.75 15 225.75H31.725C38.5 225.75 43.975 231.225 43.975 238V244.75C43.975 245.45 44.525 246 45.225 246H45.625Z" fill="url(#paint5_linear_58_30)"/>
</g>
<defs>
<linearGradient id="paint0_linear_58_30" x1="31" y1="5" x2="31" y2="262" gradientUnits="userSpaceOnUse">
<stop stop-color="#C3BCF0"/>
<stop offset="0.46875" stop-color="#ADF0FF"/>
<stop offset="1" stop-color="#FFBB6A"/>
</linearGradient>
<linearGradient id="paint1_linear_58_30" x1="31" y1="5" x2="31" y2="262" gradientUnits="userSpaceOnUse">
<stop stop-color="#C3BCF0"/>
<stop offset="0.46875" stop-color="#ADF0FF"/>
<stop offset="1" stop-color="#FFBB6A"/>
</linearGradient>
<linearGradient id="paint2_linear_58_30" x1="31" y1="5" x2="31" y2="262" gradientUnits="userSpaceOnUse">
<stop stop-color="#C3BCF0"/>
<stop offset="0.46875" stop-color="#ADF0FF"/>
<stop offset="1" stop-color="#FFBB6A"/>
</linearGradient>
<linearGradient id="paint3_linear_58_30" x1="31" y1="5" x2="31" y2="262" gradientUnits="userSpaceOnUse">
<stop stop-color="#C3BCF0"/>
<stop offset="0.46875" stop-color="#ADF0FF"/>
<stop offset="1" stop-color="#FFBB6A"/>
</linearGradient>
<linearGradient id="paint4_linear_58_30" x1="31" y1="5" x2="31" y2="262" gradientUnits="userSpaceOnUse">
<stop stop-color="#C3BCF0"/>
<stop offset="0.46875" stop-color="#ADF0FF"/>
<stop offset="1" stop-color="#FFBB6A"/>
</linearGradient>
<linearGradient id="paint5_linear_58_30" x1="31" y1="5" x2="31" y2="262" gradientUnits="userSpaceOnUse">
<stop stop-color="#C3BCF0"/>
<stop offset="0.46875" stop-color="#ADF0FF"/>
<stop offset="1" stop-color="#FFBB6A"/>
</linearGradient>
<clipPath id="clip0_58_30">
<rect width="60" height="60" fill="white"/>
</clipPath>
</defs>
</svg>
