<svg width="60" height="60" viewBox="0 0 60 60" fill="none" xmlns="http://www.w3.org/2000/svg">
<g clip-path="url(#clip0_58_33)">
<path d="M47.25 -42.5C47.25 -30.6259 37.6241 -21 25.75 -21C13.8759 -21 4.25 -30.6259 4.25 -42.5C4.25 -54.3741 13.8759 -64 25.75 -64C37.6241 -64 47.25 -54.3741 47.25 -42.5Z" fill="url(#paint0_linear_58_33)"/>
<path fill-rule="evenodd" clip-rule="evenodd" d="M41.1287 -26.1213C42.3003 -27.2929 44.1997 -27.2929 45.3713 -26.1213L51.8713 -19.6213C53.0429 -18.4497 53.0429 -16.5503 51.8713 -15.3787C50.6997 -14.2071 48.8003 -14.2071 47.6287 -15.3787L41.1287 -21.8787C39.9571 -23.0503 39.9571 -24.9497 41.1287 -26.1213Z" fill="url(#paint1_linear_58_33)"/>
<path d="M52.325 20.025L35.95 6.925C32.75 4.375 27.75 4.35 24.575 6.9L8.2 20.025C5.85 21.9 4.425 25.65 4.925 28.6L8.075 47.45C8.8 51.675 12.725 55 17 55H43.5C47.725 55 51.725 51.6 52.45 47.425L55.6 28.575C56.05 25.65 54.625 21.9 52.325 20.025ZM32.125 45C32.125 46.025 31.275 46.875 30.25 46.875C29.225 46.875 28.375 46.025 28.375 45V37.5C28.375 36.475 29.225 35.625 30.25 35.625C31.275 35.625 32.125 36.475 32.125 37.5V45Z" fill="url(#paint2_linear_58_33)"/>
<path d="M47.95 108.3C46.475 99.475 38 92.3 29.05 92.3C19.325 92.3 10.775 100.175 9.95 109.875C9.625 113.625 10.825 117.175 13.3 119.85C15.75 122.525 17.25 125 22.95 124C28.65 123 29.55 123 34.65 124C39.75 125 42.575 122.35 45.1 119.375C47.625 116.4 48.625 112.45 47.95 108.3ZM25.95 88.65C27.8927 88.65 29.7559 87.8783 31.1296 86.5046C32.5033 85.1309 33.275 83.2677 33.275 81.325C33.275 79.3823 32.5033 77.5192 31.1296 76.1454C29.7559 74.7717 27.8927 74 25.95 74C24.0073 74 22.1441 74.7717 20.7704 76.1454C19.3967 77.5192 18.625 79.3823 18.625 81.325C18.625 83.2677 19.3967 85.1309 20.7704 86.5046C22.1441 87.8783 24.0073 88.65 25.95 88.65ZM42.6 91.57C44.2178 91.57 45.7694 90.9273 46.9134 89.7834C48.0573 88.6394 48.7 87.0878 48.7 85.47C48.7 83.8522 48.0573 82.3006 46.9134 81.1566C45.7694 80.0127 44.2178 79.37 42.6 79.37C40.9822 79.37 39.4306 80.0127 38.2866 81.1566C37.1427 82.3006 36.5 83.8522 36.5 85.47C36.5 87.0878 37.1427 88.6394 38.2866 89.7834C39.4306 90.9273 40.9822 91.57 42.6 91.57ZM51.625 101.327C52.2652 101.327 52.8991 101.201 53.4906 100.956C54.082 100.711 54.6195 100.352 55.0721 99.8996C55.5248 99.447 55.8839 98.9095 56.1289 98.3181C56.3739 97.7266 56.5 97.0927 56.5 96.4525C56.5 95.8123 56.3739 95.1784 56.1289 94.5869C55.8839 93.9955 55.5248 93.458 55.0721 93.0054C54.6195 92.5527 54.082 92.1936 53.4906 91.9486C52.8991 91.7036 52.2652 91.5775 51.625 91.5775C50.3321 91.5775 49.0921 92.0911 48.1779 93.0054C47.2636 93.9196 46.75 95.1596 46.75 96.4525C46.75 97.7454 47.2636 98.9854 48.1779 99.8996C49.0921 100.814 50.3321 101.327 51.625 101.327ZM10.1 96.455C10.9011 96.455 11.6943 96.2972 12.4344 95.9907C13.1745 95.6841 13.8469 95.2348 14.4134 94.6684C14.9798 94.1019 15.4291 93.4294 15.7357 92.6894C16.0422 91.9493 16.2 91.1561 16.2 90.355C16.2 89.5539 16.0422 88.7607 15.7357 88.0206C15.4291 87.2805 14.9798 86.6081 14.4134 86.0417C13.8469 85.4752 13.1745 85.0259 12.4344 84.7193C11.6943 84.4128 10.9011 84.255 10.1 84.255C8.48218 84.255 6.93062 84.8977 5.78665 86.0417C4.64268 87.1856 4 88.7372 4 90.355C4 91.9728 4.64268 93.5244 5.78665 94.6684C6.93062 95.8123 8.48218 96.455 10.1 96.455Z" fill="url(#paint3_linear_58_33)"/>
<path d="M39.225 169V179.175C39.225 180.075 39.125 180.925 38.9 181.7C37.975 185.375 34.925 187.675 30.725 187.675H23.925L16.375 192.7C16.1219 192.873 15.8262 192.974 15.5199 192.991C15.2137 193.008 14.9086 192.94 14.638 192.796C14.3674 192.652 14.1415 192.436 13.9849 192.172C13.8284 191.908 13.7471 191.607 13.75 191.3V187.675C11.2 187.675 9.075 186.825 7.6 185.35C6.1 183.85 5.25 181.725 5.25 179.175V169C5.25 164.25 8.2 160.975 12.75 160.55C13.075 160.525 13.4 160.5 13.75 160.5H30.725C35.825 160.5 39.225 163.9 39.225 169Z" fill="url(#paint4_linear_58_33)"/>
<path d="M44.625 177C47.8 177 50.475 175.95 52.325 174.075C54.2 172.225 55.25 169.55 55.25 166.375V153.625C55.25 147.75 50.5 143 44.625 143H23.375C17.5 143 12.75 147.75 12.75 153.625V155.5C12.75 156.2 13.3 156.75 14 156.75H30.725C37.5 156.75 42.975 162.225 42.975 169V175.75C42.975 176.45 43.525 177 44.225 177H44.625Z" fill="url(#paint5_linear_58_33)"/>
</g>
<defs>
<linearGradient id="paint0_linear_58_33" x1="30" y1="-64" x2="30" y2="193" gradientUnits="userSpaceOnUse">
<stop stop-color="#C3BCF0"/>
<stop offset="0.46875" stop-color="#ADF0FF"/>
<stop offset="1" stop-color="#FFBB6A"/>
</linearGradient>
<linearGradient id="paint1_linear_58_33" x1="30" y1="-64" x2="30" y2="193" gradientUnits="userSpaceOnUse">
<stop stop-color="#C3BCF0"/>
<stop offset="0.46875" stop-color="#ADF0FF"/>
<stop offset="1" stop-color="#FFBB6A"/>
</linearGradient>
<linearGradient id="paint2_linear_58_33" x1="30" y1="-64" x2="30" y2="193" gradientUnits="userSpaceOnUse">
<stop stop-color="#C3BCF0"/>
<stop offset="0.46875" stop-color="#ADF0FF"/>
<stop offset="1" stop-color="#FFBB6A"/>
</linearGradient>
<linearGradient id="paint3_linear_58_33" x1="30" y1="-64" x2="30" y2="193" gradientUnits="userSpaceOnUse">
<stop stop-color="#C3BCF0"/>
<stop offset="0.46875" stop-color="#ADF0FF"/>
<stop offset="1" stop-color="#FFBB6A"/>
</linearGradient>
<linearGradient id="paint4_linear_58_33" x1="30" y1="-64" x2="30" y2="193" gradientUnits="userSpaceOnUse">
<stop stop-color="#C3BCF0"/>
<stop offset="0.46875" stop-color="#ADF0FF"/>
<stop offset="1" stop-color="#FFBB6A"/>
</linearGradient>
<linearGradient id="paint5_linear_58_33" x1="30" y1="-64" x2="30" y2="193" gradientUnits="userSpaceOnUse">
<stop stop-color="#C3BCF0"/>
<stop offset="0.46875" stop-color="#ADF0FF"/>
<stop offset="1" stop-color="#FFBB6A"/>
</linearGradient>
<clipPath id="clip0_58_33">
<rect width="60" height="60" fill="white"/>
</clipPath>
</defs>
</svg>
